<svg xmlns="http://www.w3.org/2000/svg" viewBox="0 0 720 155">
  <defs>
    <marker id="arr" viewBox="0 0 10 10" refX="9" refY="5" markerWidth="7" markerHeight="7" orient="auto">
      <path d="M 0 0 L 10 5 L 0 10 z" fill="#9ca3af"/>
    </marker>
  </defs>

  <rect width="720" height="155" rx="12" fill="white"/>

  <!-- Solve -->
  <rect x="30" y="20" width="135" height="62" rx="8" fill="#C9E4CA" stroke="#9bc49d" stroke-width="1"/>
  <text x="97" y="44" text-anchor="middle" font-family="'Segoe UI', system-ui, sans-serif" font-size="16" font-weight="700" fill="#2d5a30">Solve</text>
  <text x="97" y="64" text-anchor="middle" font-family="'Segoe UI', system-ui, sans-serif" font-size="12" fill="#4a5568">fix the problem</text>

  <!-- Arrow 1 -->
  <line x1="175" y1="51" x2="205" y2="51" stroke="#9ca3af" stroke-width="1.5" marker-end="url(#arr)"/>

  <!-- Compound -->
  <rect x="215" y="20" width="135" height="62" rx="8" fill="#D4A574" stroke="#c49464" stroke-width="1"/>
  <text x="282" y="44" text-anchor="middle" font-family="'Segoe UI', system-ui, sans-serif" font-size="16" font-weight="700" fill="#5c3a0a">Compound</text>
  <text x="282" y="64" text-anchor="middle" font-family="'Segoe UI', system-ui, sans-serif" font-size="12" fill="#4a5568">ops/solutions/</text>

  <!-- Arrow 2 -->
  <line x1="360" y1="51" x2="390" y2="51" stroke="#9ca3af" stroke-width="1.5" marker-end="url(#arr)"/>

  <!-- Search -->
  <rect x="400" y="20" width="135" height="62" rx="8" fill="#B8D4E3" stroke="#8dbcd4" stroke-width="1"/>
  <text x="467" y="44" text-anchor="middle" font-family="'Segoe UI', system-ui, sans-serif" font-size="16" font-weight="700" fill="#2a5a75">Search</text>
  <text x="467" y="64" text-anchor="middle" font-family="'Segoe UI', system-ui, sans-serif" font-size="12" fill="#4a5568">learnings agent</text>

  <!-- Arrow 3 -->
  <line x1="545" y1="51" x2="575" y2="51" stroke="#9ca3af" stroke-width="1.5" marker-end="url(#arr)"/>

  <!-- Plan -->
  <rect x="585" y="20" width="105" height="62" rx="8" fill="#FFE4B5" stroke="#e6cfa0" stroke-width="1"/>
  <text x="637" y="44" text-anchor="middle" font-family="'Segoe UI', system-ui, sans-serif" font-size="16" font-weight="700" fill="#7a5c1f">Plan</text>
  <text x="637" y="64" text-anchor="middle" font-family="'Segoe UI', system-ui, sans-serif" font-size="12" fill="#4a5568">informed by past</text>

  <!-- Dashed loop back -->
  <path d="M 690,82 Q 706,82 706,108 Q 706,130 367,130 Q 14,130 14,108 Q 14,82 30,82" fill="none" stroke="#b0b8c1" stroke-width="1.5" stroke-dasharray="6,4"/>
  <polygon points="28,78 30,86 33,78" fill="#b0b8c1"/>

  <rect x="325" y="122" width="85" height="20" rx="10" fill="white" stroke="#d1d5db" stroke-width="1"/>
  <text x="367" y="136" text-anchor="middle" font-family="'Segoe UI', system-ui, sans-serif" font-size="10" fill="#9ca3af" font-style="italic">next sprint</text>
</svg>